<svg width="34" height="34" viewBox="0 0 34 34" fill="none" xmlns="http://www.w3.org/2000/svg">
  <g filter="url(#filter0_di_227_1300)">
  <g clip-path="url(#clip0_227_1300)">
  <rect x="1" y="1" width="32" height="32" rx="5.76" fill="#5C4CCC"/>
  <rect x="1" y="1" width="32" height="32" rx="5.76" fill="url(#paint0_linear_227_1300)" fill-opacity="0.3"/>
  <g filter="url(#filter1_f_227_1300)">
  <path d="M7.40283 15.9534V7.66015L22.5009 9.71573L23.4932 10.141L24.9109 20.1355L33.346 30.2009L27.4627 30.6262L20.2326 25.5935L9.67108 24.8138L7.40283 15.9534Z" stroke="white" stroke-opacity="0.4" stroke-width="1.984"/>
  </g>
  <g filter="url(#filter2_dddd_227_1300)">
  <path d="M17.7266 7.08203C20.6249 7.09412 22.2146 7.19005 23.4063 7.96289C24.0531 8.3824 24.6039 8.93427 25.0234 9.58105C25.9067 10.943 25.9072 12.8245 25.9072 16.5859L25.9053 17.9111V17.9111C25.9052 17.9375 25.9051 17.9507 25.9057 17.9613C25.9161 18.154 26.073 18.3047 26.2659 18.3074C26.2765 18.3075 26.2887 18.307 26.3131 18.3059L26.6982 18.2888C27.2451 18.2645 27.5186 18.2524 27.6328 18.4259C27.747 18.5995 27.6277 18.8458 27.389 19.3385L26.5192 21.1342C26.422 21.3349 26.3734 21.4352 26.2843 21.491C26.1952 21.5469 26.0838 21.5469 25.8608 21.5469H22.2133C21.646 21.5469 21.3624 21.5469 21.257 21.3628C21.1516 21.1788 21.2952 20.9342 21.5824 20.445L22.6415 18.6409C22.6906 18.5572 22.7152 18.5154 22.728 18.4691C22.7408 18.4228 22.7412 18.3744 22.742 18.2776C22.7463 17.781 22.749 17.2217 22.749 16.5859C22.749 14.6412 22.7456 13.4142 22.6543 12.4961C22.5681 11.6289 22.4287 11.384 22.374 11.2998C22.196 11.0253 21.962 10.7913 21.6875 10.6133C21.6033 10.5587 21.3583 10.4192 20.4912 10.333C19.5731 10.2417 18.3461 10.2383 16.4014 10.2383H15.8301C13.8854 10.2383 12.6584 10.2418 11.7402 10.333C10.8741 10.4191 10.6285 10.5585 10.5439 10.6133C10.2695 10.7913 10.0355 11.0254 9.85742 11.2998C9.80279 11.384 9.66339 11.629 9.57715 12.4961C9.48588 13.4142 9.48242 14.6412 9.48242 16.5859C9.48242 18.5307 9.4859 19.7576 9.57715 20.6758C9.66335 21.5429 9.80274 21.7877 9.85742 21.8721C10.0355 22.1466 10.2694 22.3805 10.5439 22.5586C10.6283 22.6133 10.8731 22.7527 11.7402 22.8389C12.3447 22.8989 13.083 22.9205 14.0718 22.9283C14.8124 22.9341 15.1827 22.937 15.2795 22.7165C15.2812 22.7126 15.2829 22.7087 15.2844 22.7048C15.3736 22.481 15.1109 22.2183 14.5854 21.6929V21.6929C14.0622 21.1696 13.8005 20.9079 13.8885 20.6848C13.89 20.6809 13.8916 20.677 13.8933 20.6731C13.9889 20.4531 14.3589 20.4531 15.099 20.4531H17.4103C17.5544 20.4531 17.6265 20.4531 17.6918 20.4792C17.757 20.5052 17.8093 20.5548 17.9138 20.654L22.9393 25.4218C23.4415 25.8983 23.6926 26.1366 23.616 26.3591C23.5393 26.5816 23.1948 26.6146 22.5056 26.6808L20.1734 26.9046C20.0046 26.9208 19.9202 26.9289 19.8431 26.9012C19.7661 26.8735 19.7061 26.8135 19.5862 26.6936L19.1881 26.2955C19.0792 26.1867 19.0248 26.1322 18.9559 26.1044C18.8869 26.0765 18.8092 26.0778 18.6539 26.0805C18.3605 26.0855 18.0518 26.0885 17.7266 26.0898L16.4014 26.0918H15.8301C12.3034 26.0918 10.4296 26.0921 9.08691 25.3643L8.8252 25.209C8.25916 24.8419 7.76653 24.3737 7.37109 23.8291L7.20703 23.5908C6.32383 22.2288 6.32422 20.3475 6.32422 16.5859C6.32422 12.8245 6.32377 10.943 7.20703 9.58105C7.62663 8.93417 8.17828 8.38243 8.8252 7.96289C10.1872 7.07984 12.0687 7.08008 15.8301 7.08008H16.4014L17.7266 7.08203Z" fill="url(#paint1_linear_227_1300)"/>
  <path d="M17.7266 7.08203C20.6249 7.09412 22.2146 7.19005 23.4063 7.96289C24.0531 8.3824 24.6039 8.93427 25.0234 9.58105C25.9067 10.943 25.9072 12.8245 25.9072 16.5859L25.9053 17.9111V17.9111C25.9052 17.9375 25.9051 17.9507 25.9057 17.9613C25.9161 18.154 26.073 18.3047 26.2659 18.3074C26.2765 18.3075 26.2887 18.307 26.3131 18.3059L26.6982 18.2888C27.2451 18.2645 27.5186 18.2524 27.6328 18.4259C27.747 18.5995 27.6277 18.8458 27.389 19.3385L26.5192 21.1342C26.422 21.3349 26.3734 21.4352 26.2843 21.491C26.1952 21.5469 26.0838 21.5469 25.8608 21.5469H22.2133C21.646 21.5469 21.3624 21.5469 21.257 21.3628C21.1516 21.1788 21.2952 20.9342 21.5824 20.445L22.6415 18.6409C22.6906 18.5572 22.7152 18.5154 22.728 18.4691C22.7408 18.4228 22.7412 18.3744 22.742 18.2776C22.7463 17.781 22.749 17.2217 22.749 16.5859C22.749 14.6412 22.7456 13.4142 22.6543 12.4961C22.5681 11.6289 22.4287 11.384 22.374 11.2998C22.196 11.0253 21.962 10.7913 21.6875 10.6133C21.6033 10.5587 21.3583 10.4192 20.4912 10.333C19.5731 10.2417 18.3461 10.2383 16.4014 10.2383H15.8301C13.8854 10.2383 12.6584 10.2418 11.7402 10.333C10.8741 10.4191 10.6285 10.5585 10.5439 10.6133C10.2695 10.7913 10.0355 11.0254 9.85742 11.2998C9.80279 11.384 9.66339 11.629 9.57715 12.4961C9.48588 13.4142 9.48242 14.6412 9.48242 16.5859C9.48242 18.5307 9.4859 19.7576 9.57715 20.6758C9.66335 21.5429 9.80274 21.7877 9.85742 21.8721C10.0355 22.1466 10.2694 22.3805 10.5439 22.5586C10.6283 22.6133 10.8731 22.7527 11.7402 22.8389C12.3447 22.8989 13.083 22.9205 14.0718 22.9283C14.8124 22.9341 15.1827 22.937 15.2795 22.7165C15.2812 22.7126 15.2829 22.7087 15.2844 22.7048C15.3736 22.481 15.1109 22.2183 14.5854 21.6929V21.6929C14.0622 21.1696 13.8005 20.9079 13.8885 20.6848C13.89 20.6809 13.8916 20.677 13.8933 20.6731C13.9889 20.4531 14.3589 20.4531 15.099 20.4531H17.4103C17.5544 20.4531 17.6265 20.4531 17.6918 20.4792C17.757 20.5052 17.8093 20.5548 17.9138 20.654L22.9393 25.4218C23.4415 25.8983 23.6926 26.1366 23.616 26.3591C23.5393 26.5816 23.1948 26.6146 22.5056 26.6808L20.1734 26.9046C20.0046 26.9208 19.9202 26.9289 19.8431 26.9012C19.7661 26.8735 19.7061 26.8135 19.5862 26.6936L19.1881 26.2955C19.0792 26.1867 19.0248 26.1322 18.9559 26.1044C18.8869 26.0765 18.8092 26.0778 18.6539 26.0805C18.3605 26.0855 18.0518 26.0885 17.7266 26.0898L16.4014 26.0918H15.8301C12.3034 26.0918 10.4296 26.0921 9.08691 25.3643L8.8252 25.209C8.25916 24.8419 7.76653 24.3737 7.37109 23.8291L7.20703 23.5908C6.32383 22.2288 6.32422 20.3475 6.32422 16.5859C6.32422 12.8245 6.32377 10.943 7.20703 9.58105C7.62663 8.93417 8.17828 8.38243 8.8252 7.96289C10.1872 7.07984 12.0687 7.08008 15.8301 7.08008H16.4014L17.7266 7.08203Z" fill="url(#paint2_radial_227_1300)"/>
  </g>
  <g filter="url(#filter3_f_227_1300)">
  <path d="M17.7266 7.08203C20.6249 7.09412 22.2146 7.19005 23.4063 7.96289C24.0531 8.3824 24.6039 8.93427 25.0234 9.58105C25.9067 10.943 25.9072 12.8245 25.9072 16.5859L25.9053 17.9111V17.9111C25.9052 17.9375 25.9051 17.9507 25.9057 17.9613C25.9161 18.154 26.073 18.3047 26.2659 18.3074C26.2765 18.3075 26.2887 18.307 26.3131 18.3059L26.6982 18.2888C27.2451 18.2645 27.5186 18.2524 27.6328 18.4259C27.747 18.5995 27.6277 18.8458 27.389 19.3385L26.5192 21.1342C26.422 21.3349 26.3734 21.4352 26.2843 21.491C26.1952 21.5469 26.0838 21.5469 25.8608 21.5469H22.2133C21.646 21.5469 21.3624 21.5469 21.257 21.3628C21.1516 21.1788 21.2952 20.9342 21.5824 20.445L22.6415 18.6409C22.6906 18.5572 22.7152 18.5154 22.728 18.4691C22.7408 18.4228 22.7412 18.3744 22.742 18.2776C22.7463 17.781 22.749 17.2217 22.749 16.5859C22.749 14.6412 22.7456 13.4142 22.6543 12.4961C22.5681 11.6289 22.4287 11.384 22.374 11.2998C22.196 11.0253 21.962 10.7913 21.6875 10.6133C21.6033 10.5587 21.3583 10.4192 20.4912 10.333C19.5731 10.2417 18.3461 10.2383 16.4014 10.2383H15.8301C13.8854 10.2383 12.6584 10.2418 11.7402 10.333C10.8741 10.4191 10.6285 10.5585 10.5439 10.6133C10.2695 10.7913 10.0355 11.0254 9.85742 11.2998C9.80279 11.384 9.66339 11.629 9.57715 12.4961C9.48588 13.4142 9.48242 14.6412 9.48242 16.5859C9.48242 18.5307 9.4859 19.7576 9.57715 20.6758C9.66335 21.5429 9.80274 21.7877 9.85742 21.8721C10.0355 22.1466 10.2694 22.3805 10.5439 22.5586C10.6283 22.6133 10.8731 22.7527 11.7402 22.8389C12.3447 22.8989 13.083 22.9205 14.0718 22.9283C14.8124 22.9341 15.1827 22.937 15.2795 22.7165C15.2812 22.7126 15.2829 22.7087 15.2844 22.7048C15.3736 22.481 15.1109 22.2183 14.5854 21.6929V21.6929C14.0622 21.1696 13.8005 20.9079 13.8885 20.6848C13.89 20.6809 13.8916 20.677 13.8933 20.6731C13.9889 20.4531 14.3589 20.4531 15.099 20.4531H17.4103C17.5544 20.4531 17.6265 20.4531 17.6918 20.4792C17.757 20.5052 17.8093 20.5548 17.9138 20.654L22.9393 25.4218C23.4415 25.8983 23.6926 26.1366 23.616 26.3591C23.5393 26.5816 23.1948 26.6146 22.5056 26.6808L20.1734 26.9046C20.0046 26.9208 19.9202 26.9289 19.8431 26.9012C19.7661 26.8735 19.7061 26.8135 19.5862 26.6936L19.1881 26.2955C19.0792 26.1867 19.0248 26.1322 18.9559 26.1044C18.8869 26.0765 18.8092 26.0778 18.6539 26.0805C18.3605 26.0855 18.0518 26.0885 17.7266 26.0898L16.4014 26.0918H15.8301C12.3034 26.0918 10.4296 26.0921 9.08691 25.3643L8.8252 25.209C8.25916 24.8419 7.76653 24.3737 7.37109 23.8291L7.20703 23.5908C6.32383 22.2288 6.32422 20.3475 6.32422 16.5859C6.32422 12.8245 6.32377 10.943 7.20703 9.58105C7.62663 8.93417 8.17828 8.38243 8.8252 7.96289C10.1872 7.07984 12.0687 7.08008 15.8301 7.08008H16.4014L17.7266 7.08203Z" fill="url(#paint3_radial_227_1300)"/>
  <path d="M17.7266 7.08203C20.6249 7.09412 22.2146 7.19005 23.4063 7.96289C24.0531 8.3824 24.6039 8.93427 25.0234 9.58105C25.9067 10.943 25.9072 12.8245 25.9072 16.5859L25.9053 17.9111V17.9111C25.9052 17.9375 25.9051 17.9507 25.9057 17.9613C25.9161 18.154 26.073 18.3047 26.2659 18.3074C26.2765 18.3075 26.2887 18.307 26.3131 18.3059L26.6982 18.2888C27.2451 18.2645 27.5186 18.2524 27.6328 18.4259C27.747 18.5995 27.6277 18.8458 27.389 19.3385L26.5192 21.1342C26.422 21.3349 26.3734 21.4352 26.2843 21.491C26.1952 21.5469 26.0838 21.5469 25.8608 21.5469H22.2133C21.646 21.5469 21.3624 21.5469 21.257 21.3628C21.1516 21.1788 21.2952 20.9342 21.5824 20.445L22.6415 18.6409C22.6906 18.5572 22.7152 18.5154 22.728 18.4691C22.7408 18.4228 22.7412 18.3744 22.742 18.2776C22.7463 17.781 22.749 17.2217 22.749 16.5859C22.749 14.6412 22.7456 13.4142 22.6543 12.4961C22.5681 11.6289 22.4287 11.384 22.374 11.2998C22.196 11.0253 21.962 10.7913 21.6875 10.6133C21.6033 10.5587 21.3583 10.4192 20.4912 10.333C19.5731 10.2417 18.3461 10.2383 16.4014 10.2383H15.8301C13.8854 10.2383 12.6584 10.2418 11.7402 10.333C10.8741 10.4191 10.6285 10.5585 10.5439 10.6133C10.2695 10.7913 10.0355 11.0254 9.85742 11.2998C9.80279 11.384 9.66339 11.629 9.57715 12.4961C9.48588 13.4142 9.48242 14.6412 9.48242 16.5859C9.48242 18.5307 9.4859 19.7576 9.57715 20.6758C9.66335 21.5429 9.80274 21.7877 9.85742 21.8721C10.0355 22.1466 10.2694 22.3805 10.5439 22.5586C10.6283 22.6133 10.8731 22.7527 11.7402 22.8389C12.3447 22.8989 13.083 22.9205 14.0718 22.9283C14.8124 22.9341 15.1827 22.937 15.2795 22.7165C15.2812 22.7126 15.2829 22.7087 15.2844 22.7048C15.3736 22.481 15.1109 22.2183 14.5854 21.6929V21.6929C14.0622 21.1696 13.8005 20.9079 13.8885 20.6848C13.89 20.6809 13.8916 20.677 13.8933 20.6731C13.9889 20.4531 14.3589 20.4531 15.099 20.4531H17.4103C17.5544 20.4531 17.6265 20.4531 17.6918 20.4792C17.757 20.5052 17.8093 20.5548 17.9138 20.654L22.9393 25.4218C23.4415 25.8983 23.6926 26.1366 23.616 26.3591C23.5393 26.5816 23.1948 26.6146 22.5056 26.6808L20.1734 26.9046C20.0046 26.9208 19.9202 26.9289 19.8431 26.9012C19.7661 26.8735 19.7061 26.8135 19.5862 26.6936L19.1881 26.2955C19.0792 26.1867 19.0248 26.1322 18.9559 26.1044C18.8869 26.0765 18.8092 26.0778 18.6539 26.0805C18.3605 26.0855 18.0518 26.0885 17.7266 26.0898L16.4014 26.0918H15.8301C12.3034 26.0918 10.4296 26.0921 9.08691 25.3643L8.8252 25.209C8.25916 24.8419 7.76653 24.3737 7.37109 23.8291L7.20703 23.5908C6.32383 22.2288 6.32422 20.3475 6.32422 16.5859C6.32422 12.8245 6.32377 10.943 7.20703 9.58105C7.62663 8.93417 8.17828 8.38243 8.8252 7.96289C10.1872 7.07984 12.0687 7.08008 15.8301 7.08008H16.4014L17.7266 7.08203Z" fill="url(#paint4_radial_227_1300)"/>
  </g>
  </g>
  </g>
  <defs>
  <filter id="filter0_di_227_1300" x="0.5" y="0.5" width="33" height="33" filterUnits="userSpaceOnUse" color-interpolation-filters="sRGB">
  <feFlood flood-opacity="0" result="BackgroundImageFix"/>
  <feColorMatrix in="SourceAlpha" type="matrix" values="0 0 0 0 0 0 0 0 0 0 0 0 0 0 0 0 0 0 127 0" result="hardAlpha"/>
  <feMorphology radius="0.5" operator="dilate" in="SourceAlpha" result="effect1_dropShadow_227_1300"/>
  <feOffset/>
  <feComposite in2="hardAlpha" operator="out"/>
  <feColorMatrix type="matrix" values="0 0 0 0 0.203913 0 0 0 0 0.155217 0 0 0 0 0.544783 0 0 0 1 0"/>
  <feBlend mode="normal" in2="BackgroundImageFix" result="effect1_dropShadow_227_1300"/>
  <feBlend mode="normal" in="SourceGraphic" in2="effect1_dropShadow_227_1300" result="shape"/>
  <feColorMatrix in="SourceAlpha" type="matrix" values="0 0 0 0 0 0 0 0 0 0 0 0 0 0 0 0 0 0 127 0" result="hardAlpha"/>
  <feMorphology radius="0.5" operator="erode" in="SourceAlpha" result="effect2_innerShadow_227_1300"/>
  <feOffset/>
  <feComposite in2="hardAlpha" operator="arithmetic" k2="-1" k3="1"/>
  <feColorMatrix type="matrix" values="0 0 0 0 1 0 0 0 0 1 0 0 0 0 1 0 0 0 0.2 0"/>
  <feBlend mode="normal" in2="shape" result="effect2_innerShadow_227_1300"/>
  </filter>
  <filter id="filter1_f_227_1300" x="-93.5894" y="-93.4766" width="228.941" height="225.117" filterUnits="userSpaceOnUse" color-interpolation-filters="sRGB">
  <feFlood flood-opacity="0" result="BackgroundImageFix"/>
  <feBlend mode="normal" in="SourceGraphic" in2="BackgroundImageFix" result="shape"/>
  <feGaussianBlur stdDeviation="50" result="effect1_foregroundBlur_227_1300"/>
  </filter>
  <filter id="filter2_dddd_227_1300" x="4.40422" y="6.76008" width="25.1921" height="26.8798" filterUnits="userSpaceOnUse" color-interpolation-filters="sRGB">
  <feFlood flood-opacity="0" result="BackgroundImageFix"/>
  <feColorMatrix in="SourceAlpha" type="matrix" values="0 0 0 0 0 0 0 0 0 0 0 0 0 0 0 0 0 0 127 0" result="hardAlpha"/>
  <feOffset dy="0.32"/>
  <feGaussianBlur stdDeviation="0.32"/>
  <feColorMatrix type="matrix" values="0 0 0 0 0.0509804 0 0 0 0 0.0196078 0 0 0 0 0.282353 0 0 0 0.25 0"/>
  <feBlend mode="normal" in2="BackgroundImageFix" result="effect1_dropShadow_227_1300"/>
  <feColorMatrix in="SourceAlpha" type="matrix" values="0 0 0 0 0 0 0 0 0 0 0 0 0 0 0 0 0 0 127 0" result="hardAlpha"/>
  <feOffset dy="1.216"/>
  <feGaussianBlur stdDeviation="0.608"/>
  <feColorMatrix type="matrix" values="0 0 0 0 0.0509804 0 0 0 0 0.0196078 0 0 0 0 0.282353 0 0 0 0.22 0"/>
  <feBlend mode="normal" in2="effect1_dropShadow_227_1300" result="effect2_dropShadow_227_1300"/>
  <feColorMatrix in="SourceAlpha" type="matrix" values="0 0 0 0 0 0 0 0 0 0 0 0 0 0 0 0 0 0 127 0" result="hardAlpha"/>
  <feOffset dy="2.688"/>
  <feGaussianBlur stdDeviation="0.8"/>
  <feColorMatrix type="matrix" values="0 0 0 0 0.0509804 0 0 0 0 0.0196078 0 0 0 0 0.282353 0 0 0 0.13 0"/>
  <feBlend mode="normal" in2="effect2_dropShadow_227_1300" result="effect3_dropShadow_227_1300"/>
  <feColorMatrix in="SourceAlpha" type="matrix" values="0 0 0 0 0 0 0 0 0 0 0 0 0 0 0 0 0 0 127 0" result="hardAlpha"/>
  <feOffset dy="4.8"/>
  <feGaussianBlur stdDeviation="0.96"/>
  <feColorMatrix type="matrix" values="0 0 0 0 0.0509804 0 0 0 0 0.0196078 0 0 0 0 0.282353 0 0 0 0.04 0"/>
  <feBlend mode="normal" in2="effect3_dropShadow_227_1300" result="effect4_dropShadow_227_1300"/>
  <feBlend mode="normal" in="SourceGraphic" in2="effect4_dropShadow_227_1300" result="shape"/>
  </filter>
  <filter id="filter3_f_227_1300" x="3.12422" y="3.88008" width="27.7521" height="26.2398" filterUnits="userSpaceOnUse" color-interpolation-filters="sRGB">
  <feFlood flood-opacity="0" result="BackgroundImageFix"/>
  <feBlend mode="normal" in="SourceGraphic" in2="BackgroundImageFix" result="shape"/>
  <feGaussianBlur stdDeviation="1.6" result="effect1_foregroundBlur_227_1300"/>
  </filter>
  <linearGradient id="paint0_linear_227_1300" x1="1.66203" y1="1" x2="29.8999" y2="31.8916" gradientUnits="userSpaceOnUse">
  <stop stop-color="white"/>
  <stop offset="1" stop-color="white" stop-opacity="0"/>
  </linearGradient>
  <linearGradient id="paint1_linear_227_1300" x1="11.4239" y1="7.55755" x2="20.9902" y2="26.9196" gradientUnits="userSpaceOnUse">
  <stop stop-color="white" stop-opacity="0.9"/>
  <stop offset="1" stop-color="white" stop-opacity="0.8"/>
  </linearGradient>
  <radialGradient id="paint2_radial_227_1300" cx="0" cy="0" r="1" gradientUnits="userSpaceOnUse" gradientTransform="translate(12.8334 7.60359) rotate(68.6383) scale(10.5991 11.4073)">
  <stop stop-color="white"/>
  <stop offset="1" stop-color="white" stop-opacity="0"/>
  </radialGradient>
  <radialGradient id="paint3_radial_227_1300" cx="0" cy="0" r="1" gradientUnits="userSpaceOnUse" gradientTransform="translate(12.8334 7.60359) rotate(68.6383) scale(10.5991 11.4073)">
  <stop stop-color="white"/>
  <stop offset="1" stop-color="white" stop-opacity="0"/>
  </radialGradient>
  <radialGradient id="paint4_radial_227_1300" cx="0" cy="0" r="1" gradientUnits="userSpaceOnUse" gradientTransform="translate(7.35303 11.9109) rotate(67.1656) scale(8.92389 9.60434)">
  <stop stop-color="white"/>
  <stop offset="1" stop-color="white" stop-opacity="0"/>
  </radialGradient>
  <clipPath id="clip0_227_1300">
  <rect x="1" y="1" width="32" height="32" rx="5.76" fill="white"/>
  </clipPath>
  </defs>
  </svg>
