<svg width="28" height="29" viewBox="0 0 28 29" fill="none" xmlns="http://www.w3.org/2000/svg">
  <path d="M25.6693 26.6172H2.33594Z" fill="#99FA94" fill-opacity="0.1"/>
  <path d="M25.6693 26.6172H2.33594" stroke="#0C8906" stroke-width="1.5" stroke-linecap="round" stroke-linejoin="round"/>
  <path d="M24.5 26.6185V17.8685C24.5 17.4044 24.3156 16.9592 23.9874 16.6311C23.6592 16.3029 23.2141 16.1185 22.75 16.1185H19.25C18.7859 16.1185 18.3408 16.3029 18.0126 16.6311C17.6844 16.9592 17.5 17.4044 17.5 17.8685V26.6185M17.5 26.6185V6.78516C17.5 5.13549 17.5 4.31066 16.9867 3.79849C16.4757 3.28516 15.6508 3.28516 14 3.28516C12.3492 3.28516 11.5255 3.28516 11.0133 3.79849C10.5 4.30949 10.5 5.13432 10.5 6.78516V26.6185M10.5 26.6185V12.0352C10.5 11.571 10.3156 11.1259 9.98744 10.7977C9.65925 10.4695 9.21413 10.2852 8.75 10.2852H5.25C4.78587 10.2852 4.34075 10.4695 4.01256 10.7977C3.68437 11.1259 3.5 11.571 3.5 12.0352V26.6185" fill="#99FA94" fill-opacity="0.1"/>
  <path d="M24.5 26.6185V17.8685C24.5 17.4044 24.3156 16.9592 23.9874 16.6311C23.6592 16.3029 23.2141 16.1185 22.75 16.1185H19.25C18.7859 16.1185 18.3408 16.3029 18.0126 16.6311C17.6844 16.9592 17.5 17.4044 17.5 17.8685V26.6185V6.78516C17.5 5.13549 17.5 4.31066 16.9867 3.79849C16.4757 3.28516 15.6508 3.28516 14 3.28516C12.3492 3.28516 11.5255 3.28516 11.0133 3.79849C10.5 4.30949 10.5 5.13432 10.5 6.78516V26.6185V12.0352C10.5 11.571 10.3156 11.1259 9.98744 10.7977C9.65925 10.4695 9.21413 10.2852 8.75 10.2852H5.25C4.78587 10.2852 4.34075 10.4695 4.01256 10.7977C3.68437 11.1259 3.5 11.571 3.5 12.0352V26.6185" stroke="#0C8906" stroke-width="1.5" stroke-linecap="round" stroke-linejoin="round"/>
  </svg>
