<svg width="28" height="29" viewBox="0 0 28 29" fill="none" xmlns="http://www.w3.org/2000/svg">
  <path d="M11.0564 4.44922H8.45703C7.76084 4.44922 7.09316 4.72578 6.60088 5.21806C6.10859 5.71035 5.83203 6.37803 5.83203 7.07422V22.8242C5.83203 23.5204 6.10859 24.1881 6.60088 24.6804C7.09316 25.1727 7.76084 25.4492 8.45703 25.4492H18.957C19.6532 25.4492 20.3209 25.1727 20.8132 24.6804C21.3055 24.1881 21.582 23.5204 21.582 22.8242V14.9492M11.0564 4.44922C12.5065 4.44922 13.707 5.62405 13.707 7.07422V9.69922C13.707 10.3954 13.9836 11.0631 14.4759 11.5554C14.9682 12.0477 15.6358 12.3242 16.332 12.3242H18.957C19.6532 12.3242 20.3209 12.6008 20.8132 13.0931C21.3055 13.5853 21.582 14.253 21.582 14.9492M11.0564 4.44922C15.3614 4.44922 21.582 10.7026 21.582 14.9492ZM10.4987 20.1992H17.4987ZM10.4987 16.6992H15.1654Z" fill="#FA94AA" fill-opacity="0.1"/>
  <path d="M11.0564 4.44922H8.45703C7.76084 4.44922 7.09316 4.72578 6.60088 5.21806C6.10859 5.71035 5.83203 6.37803 5.83203 7.07422V22.8242C5.83203 23.5204 6.10859 24.1881 6.60088 24.6804C7.09316 25.1727 7.76084 25.4492 8.45703 25.4492H18.957C19.6532 25.4492 20.3209 25.1727 20.8132 24.6804C21.3055 24.1881 21.582 23.5204 21.582 22.8242V14.9492M11.0564 4.44922C12.5065 4.44922 13.707 5.62405 13.707 7.07422V9.69922C13.707 10.3954 13.9836 11.0631 14.4759 11.5554C14.9682 12.0477 15.6358 12.3242 16.332 12.3242H18.957C19.6532 12.3242 20.3209 12.6008 20.8132 13.0931C21.3055 13.5853 21.582 14.253 21.582 14.9492M11.0564 4.44922C15.3614 4.44922 21.582 10.7026 21.582 14.9492M10.4987 20.1992H17.4987M10.4987 16.6992H15.1654" stroke="#890622" stroke-width="1.5" stroke-linecap="round" stroke-linejoin="round"/>
  </svg>
