<svg width="19" height="18" viewBox="0 0 19 18" fill="none" xmlns="http://www.w3.org/2000/svg">
  <path
    d="M6.74609 7.83333V6.66667C6.74609 5.05608 7.46884 3.75 9.07943 3.75C10.69 3.75 11.4128 5.05608 11.4128 6.66667V7.83333M4.12109 12.3833V9.7C4.12109 9.04667 4.12109 8.72 4.24826 8.47092C4.36001 8.25119 4.53849 8.0725 4.75809 7.9605C5.00776 7.83392 5.33443 7.83392 5.98776 7.83392H12.1711C12.8244 7.83392 13.1511 7.83392 13.4008 7.9605C13.6203 8.07235 13.7987 8.25082 13.9106 8.47033C14.0378 8.72 14.0378 9.04667 14.0378 9.7V12.3833C14.0378 13.0367 14.0378 13.3633 13.9106 13.613C13.7987 13.8325 13.6203 14.011 13.4008 14.1228C13.1511 14.25 12.8244 14.25 12.1711 14.25H5.98776C5.33443 14.25 5.00776 14.25 4.75809 14.1228C4.53858 14.011 4.36011 13.8325 4.24826 13.613C4.12109 13.3639 4.12109 13.0372 4.12109 12.3833Z"
    stroke="url(#paint0_linear_630_4862)" stroke-width="1.125" />
  <defs>
    <linearGradient id="paint0_linear_630_4862" x1="4.12109" y1="6.94095" x2="17.5528" y2="15.4434"
      gradientUnits="userSpaceOnUse">
      <stop />
      <stop offset="0.333" stop-color="#808080" />
      <stop offset="1" />
    </linearGradient>
  </defs>
</svg>
