<svg width="28" height="31" viewBox="0 0 28 31" fill="none" xmlns="http://www.w3.org/2000/svg">
  <path d="M9.04036 19.1102L11.8404 21.9102ZM9.04036 19.1102C9.04036 19.1102 10.6935 14.9778 13.0467 12.1102ZM9.04036 19.1102C2.95153 17.5877 8.42203 12.1102 13.0467 12.1102ZM11.8404 21.9102C11.8404 21.9102 15.9727 20.257 18.8404 17.9038ZM11.8404 21.9102C13.3629 27.9978 18.8404 22.5285 18.8404 17.9038ZM13.0467 12.1102C15.4267 9.20982 19.3502 7.91016 23.0404 7.91016C23.0404 11.6003 21.7407 15.5227 18.8404 17.9038M16.857 13.985L17.6819 13.1602ZM6.43753 22.2905C5.32686 23.225 4.95703 25.9993 4.95703 25.9993C4.95703 25.9993 7.72436 25.6283 8.65653 24.5153C9.18153 23.8923 9.17453 22.9357 8.59003 22.357C8.30105 22.0854 7.92278 21.9287 7.52636 21.9164C7.12995 21.9042 6.74272 22.0372 6.43753 22.2905Z" fill="#94A3FA" fill-opacity="0.1"/>
  <path d="M9.04036 19.1102L11.8404 21.9102M9.04036 19.1102C9.04036 19.1102 10.6935 14.9778 13.0467 12.1102M9.04036 19.1102C2.95153 17.5877 8.42203 12.1102 13.0467 12.1102M11.8404 21.9102C11.8404 21.9102 15.9727 20.257 18.8404 17.9038M11.8404 21.9102C13.3629 27.9978 18.8404 22.5285 18.8404 17.9038M13.0467 12.1102C15.4267 9.20982 19.3502 7.91016 23.0404 7.91016C23.0404 11.6003 21.7407 15.5227 18.8404 17.9038M16.857 13.985L17.6819 13.1602M6.43753 22.2905C5.32686 23.225 4.95703 25.9993 4.95703 25.9993C4.95703 25.9993 7.72436 25.6283 8.65653 24.5153C9.18153 23.8923 9.17453 22.9357 8.59003 22.357C8.30105 22.0854 7.92278 21.9287 7.52636 21.9164C7.12995 21.9042 6.74272 22.0372 6.43753 22.2905Z" stroke="#061989" stroke-width="1.5" stroke-linecap="round" stroke-linejoin="round"/>
  </svg>
