<svg width="28" height="31" viewBox="0 0 28 31" fill="none" xmlns="http://www.w3.org/2000/svg">
  <path d="M11.9688 16.0675L13.1751 17.4453C13.2859 17.5725 13.4854 17.562 13.5834 17.4267L16.0334 14.0352" stroke="#592604" stroke-width="1.5" stroke-linecap="round" stroke-linejoin="round"/>
  <path d="M13.3769 27.2403C13.5556 27.3764 13.7741 27.45 13.9987 27.45C14.2234 27.45 14.4418 27.3764 14.6206 27.2403C16.5281 25.8088 22.1654 21.134 22.1654 15.8023V10.0506C22.1666 9.90227 22.1127 9.75872 22.0143 9.64775C21.9158 9.53677 21.7797 9.46625 21.6322 9.4498C19.2961 9.21062 17.0572 8.38997 15.1199 7.0628L14.4082 6.5763C14.2877 6.49352 14.1449 6.44922 13.9987 6.44922C13.8525 6.44922 13.7097 6.49352 13.5892 6.5763L12.8776 7.0628C10.9402 8.38997 8.70131 9.21062 6.36522 9.4498C6.21776 9.46625 6.08164 9.53677 5.98317 9.64775C5.88469 9.75872 5.83085 9.90227 5.83205 10.0506V15.8023C5.83205 21.134 11.4694 25.8088 13.3769 27.238" fill="#FABD94" fill-opacity="0.1"/>
  <path d="M13.3769 27.2403C13.5556 27.3764 13.7741 27.45 13.9987 27.45C14.2234 27.45 14.4418 27.3764 14.6206 27.2403C16.5281 25.8088 22.1654 21.134 22.1654 15.8023V10.0506C22.1666 9.90227 22.1127 9.75872 22.0143 9.64775C21.9158 9.53677 21.7797 9.46625 21.6322 9.4498C19.2961 9.21062 17.0572 8.38997 15.1199 7.0628L14.4082 6.5763C14.2877 6.49352 14.1449 6.44922 13.9987 6.44922C13.8525 6.44922 13.7097 6.49352 13.5892 6.5763L12.8776 7.0628C10.9402 8.38997 8.70131 9.21062 6.36522 9.4498C6.21776 9.46625 6.08164 9.53677 5.98317 9.64775C5.88469 9.75872 5.83085 9.90227 5.83205 10.0506V15.8023C5.83205 21.134 11.4694 25.8088 13.3769 27.238" stroke="#893A06" stroke-width="1.5" stroke-linecap="round" stroke-linejoin="round"/>
  </svg>
