<svg width="149" height="123" viewBox="0 0 149 123" fill="none" xmlns="http://www.w3.org/2000/svg">
  <g opacity="0.4" clip-path="url(#clip0_630_4915)">
    <g filter="url(#filter0_i_630_4915)">
      <path fill-rule="evenodd" clip-rule="evenodd"
        d="M137.863 1.07998C137.792 1.29117 137.722 1.85435 137.722 2.34713C137.722 2.83992 137.558 4.64679 137.346 6.38326C136.877 10.349 137.041 16.3797 137.722 19.8292C137.98 21.1198 138.191 22.2227 138.191 22.2931C138.168 22.4809 137.182 21.2606 134.86 18.2335C131.763 14.1505 130.355 12.5783 127.54 10.0909C119.399 2.88685 111.869 -0.0229189 104.408 1.19731C100.584 1.80742 94.9773 4.27134 91.4113 6.87605C83.6695 12.5783 77.734 23.4664 76.4672 34.3077C76.1856 36.6542 76.3029 43.5767 76.6548 46.768L76.7956 48.1291L75.4115 47.4955C68.2795 44.2337 64.6432 42.8727 59.482 41.5351C53.9688 40.1037 48.7372 39.5875 43.529 39.9395C25.3239 41.1597 10.0982 57.9847 3.55276 84.1257C2.49705 88.3965 0.854832 96.5391 0.362167 100.059C-0.623162 106.934 0.479469 116.109 2.73165 119.746C3.5293 121.014 4.46771 122.023 4.86653 122.023C5.33574 122.023 5.2419 121.577 4.32695 119.746C2.96625 116.977 2.49705 114.255 2.49705 108.999C2.47359 103.954 2.56743 103.391 4.37387 95.5066C7.16564 83.3748 9.32398 76.9921 13.3591 69.0606C16.5497 62.7718 19.5292 58.5714 23.7989 54.324C29.0775 49.0677 34.661 45.9937 40.8545 44.9142C44.1155 44.351 50.7078 44.5857 54.5788 45.3835C60.655 46.6742 64.9717 48.2464 73.1827 52.2121C78.3674 54.723 79.4701 55.0046 80.8073 54.1129C82.4495 53.0569 82.6372 51.6959 81.9803 46.1814C81.7692 44.4449 81.5815 41.0424 81.5815 38.4846C81.558 34.5658 81.6284 33.5802 82.0742 31.5387C83.4114 25.3437 86.0624 19.9231 90.0272 15.2299C93.7808 10.7714 99.9509 7.27496 105.37 6.54752C109.499 5.98434 114.168 7.48616 119.024 10.9826C121.769 12.9303 126.766 17.9519 129.088 21.1198L131.083 23.8184L130.215 23.9827C129.745 24.0531 127.235 24.2643 124.678 24.4051C119.306 24.7101 118.555 24.8744 117.429 25.8365C115.575 27.4791 115.904 30.4827 118.086 31.5152C119.212 32.0549 123.012 32.5477 127.282 32.7354C129.229 32.8058 133.945 33.0874 137.769 33.369C145.511 33.9322 145.98 33.8853 147.458 32.5946C149.288 30.9755 149.194 28.9574 147.059 24.0296C146.214 22.0819 145.112 19.2426 144.643 17.6938C142.602 11.0999 139.974 3.09804 139.458 1.94822C138.895 0.681056 138.168 0.282137 137.863 1.07998Z"
        fill="black" fill-opacity="0.4" />
    </g>
  </g>
  <defs>
    <filter id="filter0_i_630_4915" x="0" y="0.667969" width="148.75" height="123.355" filterUnits="userSpaceOnUse"
      color-interpolation-filters="sRGB">
      <feFlood flood-opacity="0" result="BackgroundImageFix" />
      <feBlend mode="normal" in="SourceGraphic" in2="BackgroundImageFix" result="shape" />
      <feColorMatrix in="SourceAlpha" type="matrix" values="0 0 0 0 0 0 0 0 0 0 0 0 0 0 0 0 0 0 127 0"
        result="hardAlpha" />
      <feOffset dy="2" />
      <feGaussianBlur stdDeviation="12" />
      <feComposite in2="hardAlpha" operator="arithmetic" k2="-1" k3="1" />
      <feColorMatrix type="matrix" values="0 0 0 0 0 0 0 0 0 0 0 0 0 0 0 0 0 0 0.15 0" />
      <feBlend mode="normal" in2="shape" result="effect1_innerShadow_630_4915" />
    </filter>
    <clipPath id="clip0_630_4915">
      <rect width="149" height="122" fill="white" transform="translate(0 0.5)" />
    </clipPath>
  </defs>
</svg>
