<svg width="151" height="83" viewBox="0 0 151 83" fill="none" xmlns="http://www.w3.org/2000/svg">
  <g filter="url(#filter0_i_630_4918)">
    <path fill-rule="evenodd" clip-rule="evenodd"
      d="M68.4207 82.352C57.9545 81.7187 47.1833 78.4117 39.1108 73.3924C32.7278 69.4051 26.251 63.1193 20.8771 55.7311C16.3246 49.4688 12.0537 42.3151 9.56618 36.8033C6.98484 31.0569 5.17792 25.4513 3.06592 16.7262C0.578444 6.4766 0.273354 3.4509 1.51709 1.6215C1.93949 0.988198 2.17418 0.847504 2.83125 0.847504H3.65258L3.81684 2.8411C3.95764 4.8113 4.16883 5.726 7.1491 16.4448C9.66004 25.5686 11.5843 30.7286 14.8227 37.0848C20.3843 48.0146 28.715 58.874 36.0601 64.6908C43.3113 70.4371 51.9705 73.9553 62.7887 75.5971C64.1263 75.7847 66.9892 75.902 70.65 75.902C76.986 75.8786 79.7316 75.5971 84.6362 74.4009C94.7034 71.9148 101.157 68.1386 114.064 57.1618C116.622 54.9806 121.808 50.0082 121.808 49.7268C121.808 49.6564 121.151 49.7268 120.353 49.8909C118.194 50.3366 117.091 50.2897 115.941 49.6798C114.744 49.0466 113.829 47.5689 113.829 46.2789C113.829 44.3322 115.096 42.9015 117.936 41.6349C118.71 41.3066 122.723 39.3364 126.853 37.2724C135.137 33.1209 136.662 32.4642 140.299 31.4557C144.711 30.2126 147.316 30.5644 149.076 32.6049C150.625 34.4109 150.836 36.8502 149.663 39.2426C149.311 39.9228 147.832 42.0102 146.354 43.8866C143.209 47.8504 142.505 48.9528 141.238 51.908C140.041 54.6991 138.985 58.4049 137.648 64.4562C135.348 75.0577 135.489 74.5417 134.832 73.8849C134.034 73.0875 132.837 64.6204 132.837 59.7888C132.837 56.3878 133.095 54.3004 133.893 51.0168C134.198 49.7268 134.433 48.6713 134.409 48.6478C134.386 48.6244 133.565 49.6798 132.602 50.9933C128.308 56.81 117.631 66.1449 108.08 72.4073C100.288 77.4969 93.4831 80.1473 84.2138 81.6484C79.1919 82.4693 74.0527 82.6804 68.4207 82.352Z"
      fill="black" fill-opacity="0.2" />
  </g>
  <defs>
    <filter id="filter0_i_630_4918" x="0.804688" y="0.847656" width="149.605" height="83.6523"
      filterUnits="userSpaceOnUse" color-interpolation-filters="sRGB">
      <feFlood flood-opacity="0" result="BackgroundImageFix" />
      <feBlend mode="normal" in="SourceGraphic" in2="BackgroundImageFix" result="shape" />
      <feColorMatrix in="SourceAlpha" type="matrix" values="0 0 0 0 0 0 0 0 0 0 0 0 0 0 0 0 0 0 127 0"
        result="hardAlpha" />
      <feOffset dy="2" />
      <feGaussianBlur stdDeviation="2" />
      <feComposite in2="hardAlpha" operator="arithmetic" k2="-1" k3="1" />
      <feColorMatrix type="matrix" values="0 0 0 0 0 0 0 0 0 0 0 0 0 0 0 0 0 0 0.15 0" />
      <feBlend mode="normal" in2="shape" result="effect1_innerShadow_630_4918" />
    </filter>
  </defs>
</svg>
