<svg width="20" height="21" viewBox="0 0 20 21" fill="none" xmlns="http://www.w3.org/2000/svg">
  <g clip-path="url(#clip0_630_4804)">
    <path fill-rule="evenodd" clip-rule="evenodd"
      d="M10 0.871094C4.475 0.871094 0 5.34609 0 10.8711C0 15.2961 2.8625 19.0336 6.8375 20.3586C7.3375 20.4461 7.525 20.1461 7.525 19.8836C7.525 19.6461 7.5125 18.8586 7.5125 18.0211C5 18.4836 4.35 17.4086 4.15 16.8461C4.0375 16.5586 3.55 15.6711 3.125 15.4336C2.775 15.2461 2.275 14.7836 3.1125 14.7711C3.9 14.7586 4.4625 15.4961 4.65 15.7961C5.55 17.3086 6.9875 16.8836 7.5625 16.6211C7.65 15.9711 7.9125 15.5336 8.2 15.2836C5.975 15.0336 3.65 14.1711 3.65 10.3461C3.65 9.25859 4.0375 8.35859 4.675 7.65859C4.575 7.40859 4.225 6.38359 4.775 5.00859C4.775 5.00859 5.6125 4.74609 7.525 6.03359C8.325 5.80859 9.175 5.69609 10.025 5.69609C10.875 5.69609 11.725 5.80859 12.525 6.03359C14.4375 4.73359 15.275 5.00859 15.275 5.00859C15.825 6.38359 15.475 7.40859 15.375 7.65859C16.0125 8.35859 16.4 9.24609 16.4 10.3461C16.4 14.1836 14.0625 15.0336 11.8375 15.2836C12.2 15.5961 12.5125 16.1961 12.5125 17.1336C12.5125 18.4711 12.5 19.5461 12.5 19.8836C12.5 20.1461 12.6875 20.4586 13.1875 20.3586C17.1375 19.0336 20 15.2836 20 10.8711C20 5.34609 15.525 0.871094 10 0.871094Z"
      fill="currentColor" />
  </g>
  <defs>
    <clipPath id="clip0_630_4804">
      <rect width="20" height="20" fill="white" transform="translate(0 0.871094)" />
    </clipPath>
  </defs>
</svg>
